<svg width="444" height="78" viewBox="0 0 444 78" fill="none" xmlns="http://www.w3.org/2000/svg">
<g clip-path="url(#clip0_21_675)">
<path d="M0 1V6.46L50 6V1H0Z" fill="url(#paint0_linear_21_675)"/>
<path d="M0 36V41.46L50 41V36H0Z" fill="url(#paint1_linear_21_675)"/>
<path d="M0 72V77.46L50 77V72H0Z" fill="url(#paint2_linear_21_675)"/>
<path d="M163 0V5.46L213 5V0H163Z" fill="url(#paint3_linear_21_675)"/>
<path d="M163 35V40.46L213 40V35H163Z" fill="url(#paint4_linear_21_675)"/>
<path d="M163 71V76.46L213 76V71H163Z" fill="url(#paint5_linear_21_675)"/>
<path d="M67.46 1H73.84L103.5 69.5L135.24 1H141.12L106.9 77.46H101.67L67.46 1Z" fill="url(#paint6_linear_21_675)"/>
<path d="M247.2 77.46H241.84V1H247.2L298.5 68.5V1H303.37V77.46H298.52L247.5 12.5L247.2 77.46Z" fill="url(#paint7_linear_21_675)"/>
<path d="M325.07 1H385.59V6.12H358.14V77.46H352.65V5.5H325.07V1Z" fill="url(#paint8_linear_21_675)"/>
<path d="M423.71 16.5H418.5V61.78H423.71V16.5Z" fill="url(#paint9_linear_21_675)"/>
<path d="M443.75 36.53H398.47V41.74H443.75V36.53Z" fill="url(#paint10_linear_21_675)"/>
</g>
<defs>
<linearGradient id="paint0_linear_21_675" x1="0" y1="3.73" x2="50" y2="3.73" gradientUnits="userSpaceOnUse">
<stop stop-color="#B51D44"/>
<stop offset="0.99" stop-color="#821B47"/>
</linearGradient>
<linearGradient id="paint1_linear_21_675" x1="0" y1="38.73" x2="1" y2="38.73" gradientUnits="userSpaceOnUse">
<stop stop-color="#B51D44"/>
<stop offset="0.99" stop-color="#821B47"/>
</linearGradient>
<linearGradient id="paint2_linear_21_675" x1="0" y1="74.73" x2="1" y2="74.73" gradientUnits="userSpaceOnUse">
<stop stop-color="#B51D44"/>
<stop offset="0.99" stop-color="#821B47"/>
</linearGradient>
<linearGradient id="paint3_linear_21_675" x1="163" y1="2.73" x2="213" y2="2.73" gradientUnits="userSpaceOnUse">
<stop stop-color="#B51D44"/>
<stop offset="0.99" stop-color="#821B47"/>
</linearGradient>
<linearGradient id="paint4_linear_21_675" x1="163" y1="37.73" x2="213" y2="37.73" gradientUnits="userSpaceOnUse">
<stop stop-color="#B51D44"/>
<stop offset="0.99" stop-color="#821B47"/>
</linearGradient>
<linearGradient id="paint5_linear_21_675" x1="163" y1="73.73" x2="213" y2="73.73" gradientUnits="userSpaceOnUse">
<stop stop-color="#B51D44"/>
<stop offset="0.99" stop-color="#821B47"/>
</linearGradient>
<linearGradient id="paint6_linear_21_675" x1="67.46" y1="39.23" x2="141.12" y2="39.23" gradientUnits="userSpaceOnUse">
<stop stop-color="#B51D44"/>
<stop offset="0.99" stop-color="#821B47"/>
</linearGradient>
<linearGradient id="paint7_linear_21_675" x1="241.84" y1="39.23" x2="303.37" y2="39.23" gradientUnits="userSpaceOnUse">
<stop stop-color="#B51D44"/>
<stop offset="0.99" stop-color="#821B47"/>
</linearGradient>
<linearGradient id="paint8_linear_21_675" x1="325.07" y1="39.23" x2="385.59" y2="39.23" gradientUnits="userSpaceOnUse">
<stop stop-color="#B51D44"/>
<stop offset="0.99" stop-color="#821B47"/>
</linearGradient>
<linearGradient id="paint9_linear_21_675" x1="418.5" y1="39.14" x2="423.71" y2="39.14" gradientUnits="userSpaceOnUse">
<stop stop-color="#B51D44"/>
<stop offset="0.99" stop-color="#821B47"/>
</linearGradient>
<linearGradient id="paint10_linear_21_675" x1="398.47" y1="39.14" x2="443.74" y2="39.14" gradientUnits="userSpaceOnUse">
<stop stop-color="#B51D44"/>
<stop offset="0.99" stop-color="#821B47"/>
</linearGradient>
<clipPath id="clip0_21_675">
<rect width="443.74" height="77.46" fill="white"/>
</clipPath>
</defs>
</svg>
